<mxfile host="app.diagrams.net" modified="2022-12-09T03:45:26.159Z" agent="5.0 (Windows NT 10.0; Win64; x64) AppleWebKit/537.36 (KHTML, like Gecko) Chrome/107.0.0.0 Safari/537.36" etag="1N66P1Tfsd_OZmm-zxEi" version="20.5.3" type="github">
  <diagram id="f-olrVjfNRtiMedI-SM6" name="Page-1">
    <mxGraphModel dx="4139" dy="2243" grid="1" gridSize="10" guides="1" tooltips="1" connect="1" arrows="1" fold="1" page="1" pageScale="1" pageWidth="850" pageHeight="1100" math="0" shadow="0">
      <root>
        <mxCell id="0" />
        <mxCell id="1" parent="0" />
        <mxCell id="CkPKC6UxbSRcMYnlu2Th-9" style="edgeStyle=orthogonalEdgeStyle;rounded=0;orthogonalLoop=1;jettySize=auto;html=1;" edge="1" parent="1" source="CkPKC6UxbSRcMYnlu2Th-6" target="CkPKC6UxbSRcMYnlu2Th-8">
          <mxGeometry relative="1" as="geometry" />
        </mxCell>
        <mxCell id="CkPKC6UxbSRcMYnlu2Th-11" value="Trigger" style="edgeStyle=orthogonalEdgeStyle;rounded=0;orthogonalLoop=1;jettySize=auto;html=1;" edge="1" parent="1" source="CkPKC6UxbSRcMYnlu2Th-8" target="CkPKC6UxbSRcMYnlu2Th-10">
          <mxGeometry relative="1" as="geometry" />
        </mxCell>
        <mxCell id="CkPKC6UxbSRcMYnlu2Th-14" style="edgeStyle=orthogonalEdgeStyle;rounded=0;orthogonalLoop=1;jettySize=auto;html=1;entryX=1;entryY=0.5;entryDx=0;entryDy=0;" edge="1" parent="1" source="CkPKC6UxbSRcMYnlu2Th-8" target="CkPKC6UxbSRcMYnlu2Th-13">
          <mxGeometry relative="1" as="geometry">
            <Array as="points">
              <mxPoint x="645" y="400" />
              <mxPoint x="570" y="400" />
            </Array>
          </mxGeometry>
        </mxCell>
        <mxCell id="CkPKC6UxbSRcMYnlu2Th-18" style="edgeStyle=orthogonalEdgeStyle;rounded=0;orthogonalLoop=1;jettySize=auto;html=1;entryX=1;entryY=0.5;entryDx=0;entryDy=0;" edge="1" parent="1" source="CkPKC6UxbSRcMYnlu2Th-8" target="CkPKC6UxbSRcMYnlu2Th-19">
          <mxGeometry relative="1" as="geometry">
            <mxPoint x="660" y="610" as="targetPoint" />
            <Array as="points">
              <mxPoint x="790" y="284" />
              <mxPoint x="790" y="600" />
            </Array>
          </mxGeometry>
        </mxCell>
        <mxCell id="CkPKC6UxbSRcMYnlu2Th-8" value="JB Rebates Sync Trigger" style="aspect=fixed;html=1;points=[];align=center;image;fontSize=12;image=img/lib/azure2/internet_of_things/Logic_Apps.svg;" vertex="1" parent="1">
          <mxGeometry x="588" y="250" width="68" height="68" as="geometry" />
        </mxCell>
        <mxCell id="CkPKC6UxbSRcMYnlu2Th-10" value="Rebates ADF" style="aspect=fixed;html=1;points=[];align=center;image;fontSize=12;image=img/lib/azure2/databases/Data_Factory.svg;" vertex="1" parent="1">
          <mxGeometry x="370" y="250" width="68" height="68" as="geometry" />
        </mxCell>
        <mxCell id="CkPKC6UxbSRcMYnlu2Th-15" style="edgeStyle=orthogonalEdgeStyle;rounded=0;orthogonalLoop=1;jettySize=auto;html=1;" edge="1" parent="1" source="CkPKC6UxbSRcMYnlu2Th-13" target="CkPKC6UxbSRcMYnlu2Th-10">
          <mxGeometry relative="1" as="geometry">
            <Array as="points">
              <mxPoint x="404" y="370" />
            </Array>
          </mxGeometry>
        </mxCell>
        <mxCell id="CkPKC6UxbSRcMYnlu2Th-16" value="Trigger Refresh" style="edgeStyle=orthogonalEdgeStyle;rounded=0;orthogonalLoop=1;jettySize=auto;html=1;" edge="1" parent="1" source="CkPKC6UxbSRcMYnlu2Th-13" target="CkPKC6UxbSRcMYnlu2Th-17">
          <mxGeometry relative="1" as="geometry">
            <mxPoint x="515" y="550" as="targetPoint" />
          </mxGeometry>
        </mxCell>
        <mxCell id="CkPKC6UxbSRcMYnlu2Th-22" value="Update to &lt;b&gt;&lt;font style=&quot;font-size: 18px;&quot;&gt;Ready&lt;/font&gt;&lt;/b&gt;" style="edgeStyle=orthogonalEdgeStyle;rounded=0;orthogonalLoop=1;jettySize=auto;html=1;" edge="1" parent="1" source="CkPKC6UxbSRcMYnlu2Th-13" target="CkPKC6UxbSRcMYnlu2Th-23">
          <mxGeometry relative="1" as="geometry">
            <mxPoint x="200" y="405" as="targetPoint" />
            <Array as="points">
              <mxPoint x="305" y="420" />
              <mxPoint x="305" y="412" />
            </Array>
          </mxGeometry>
        </mxCell>
        <mxCell id="CkPKC6UxbSRcMYnlu2Th-13" value="IsCompleted ?&amp;nbsp;" style="rhombus;whiteSpace=wrap;html=1;" vertex="1" parent="1">
          <mxGeometry x="460" y="374" width="110" height="90" as="geometry" />
        </mxCell>
        <mxCell id="CkPKC6UxbSRcMYnlu2Th-17" value="Rebates Models" style="aspect=fixed;html=1;points=[];align=center;image;fontSize=12;image=img/lib/azure2/analytics/Analysis_Services.svg;" vertex="1" parent="1">
          <mxGeometry x="475.63" y="570" width="78.75" height="60" as="geometry" />
        </mxCell>
        <mxCell id="CkPKC6UxbSRcMYnlu2Th-20" style="edgeStyle=orthogonalEdgeStyle;rounded=0;orthogonalLoop=1;jettySize=auto;html=1;" edge="1" parent="1" source="CkPKC6UxbSRcMYnlu2Th-19" target="CkPKC6UxbSRcMYnlu2Th-17">
          <mxGeometry relative="1" as="geometry" />
        </mxCell>
        <mxCell id="CkPKC6UxbSRcMYnlu2Th-91" value="Yes" style="edgeStyle=orthogonalEdgeStyle;rounded=0;orthogonalLoop=1;jettySize=auto;html=1;entryX=0.5;entryY=0;entryDx=0;entryDy=0;" edge="1" parent="1" source="CkPKC6UxbSRcMYnlu2Th-19" target="CkPKC6UxbSRcMYnlu2Th-90">
          <mxGeometry relative="1" as="geometry" />
        </mxCell>
        <mxCell id="CkPKC6UxbSRcMYnlu2Th-19" value="Is Refreshed" style="rhombus;whiteSpace=wrap;html=1;" vertex="1" parent="1">
          <mxGeometry x="620" y="560" width="80" height="80" as="geometry" />
        </mxCell>
        <mxCell id="CkPKC6UxbSRcMYnlu2Th-23" value="rebatesComplete.txt&amp;nbsp;" style="sketch=0;aspect=fixed;html=1;points=[];align=center;image;fontSize=12;image=img/lib/mscae/BlobBlock.svg;" vertex="1" parent="1">
          <mxGeometry x="59.760000000000005" y="374" width="90.48" height="76" as="geometry" />
        </mxCell>
        <mxCell id="CkPKC6UxbSRcMYnlu2Th-28" style="edgeStyle=orthogonalEdgeStyle;rounded=0;orthogonalLoop=1;jettySize=auto;html=1;" edge="1" parent="1" source="CkPKC6UxbSRcMYnlu2Th-24" target="CkPKC6UxbSRcMYnlu2Th-27">
          <mxGeometry relative="1" as="geometry" />
        </mxCell>
        <mxCell id="CkPKC6UxbSRcMYnlu2Th-47" value="Check 3 mins" style="edgeStyle=orthogonalEdgeStyle;rounded=0;orthogonalLoop=1;jettySize=auto;html=1;" edge="1" parent="1" source="CkPKC6UxbSRcMYnlu2Th-24" target="CkPKC6UxbSRcMYnlu2Th-48">
          <mxGeometry relative="1" as="geometry">
            <mxPoint x="-180" y="960" as="targetPoint" />
            <Array as="points">
              <mxPoint x="314" y="960" />
            </Array>
          </mxGeometry>
        </mxCell>
        <mxCell id="CkPKC6UxbSRcMYnlu2Th-24" value="JB_RebatesToBuyerSchedule" style="aspect=fixed;html=1;points=[];align=center;image;fontSize=12;image=img/lib/azure2/internet_of_things/Logic_Apps.svg;" vertex="1" parent="1">
          <mxGeometry x="280" y="627" width="68" height="68" as="geometry" />
        </mxCell>
        <mxCell id="CkPKC6UxbSRcMYnlu2Th-26" value="allComplete.txt" style="sketch=0;aspect=fixed;html=1;points=[];align=center;image;fontSize=12;image=img/lib/mscae/BlobBlock.svg;" vertex="1" parent="1">
          <mxGeometry x="-57" y="635.8000000000001" width="60" height="50.4" as="geometry" />
        </mxCell>
        <mxCell id="CkPKC6UxbSRcMYnlu2Th-29" style="edgeStyle=orthogonalEdgeStyle;rounded=0;orthogonalLoop=1;jettySize=auto;html=1;" edge="1" parent="1" source="CkPKC6UxbSRcMYnlu2Th-27" target="CkPKC6UxbSRcMYnlu2Th-26">
          <mxGeometry relative="1" as="geometry" />
        </mxCell>
        <mxCell id="CkPKC6UxbSRcMYnlu2Th-31" value="Yes" style="edgeStyle=orthogonalEdgeStyle;rounded=0;orthogonalLoop=1;jettySize=auto;html=1;entryX=0.5;entryY=1;entryDx=0;entryDy=0;" edge="1" parent="1" source="CkPKC6UxbSRcMYnlu2Th-27" target="CkPKC6UxbSRcMYnlu2Th-32">
          <mxGeometry relative="1" as="geometry">
            <mxPoint x="105" y="520" as="targetPoint" />
            <Array as="points">
              <mxPoint x="105" y="750" />
              <mxPoint x="105" y="750" />
            </Array>
          </mxGeometry>
        </mxCell>
        <mxCell id="CkPKC6UxbSRcMYnlu2Th-35" value="No" style="edgeStyle=orthogonalEdgeStyle;rounded=0;orthogonalLoop=1;jettySize=auto;html=1;" edge="1" parent="1" source="CkPKC6UxbSRcMYnlu2Th-27" target="CkPKC6UxbSRcMYnlu2Th-34">
          <mxGeometry relative="1" as="geometry" />
        </mxCell>
        <mxCell id="CkPKC6UxbSRcMYnlu2Th-27" value="IF Exists" style="rhombus;whiteSpace=wrap;html=1;" vertex="1" parent="1">
          <mxGeometry x="65" y="620" width="80" height="80" as="geometry" />
        </mxCell>
        <mxCell id="CkPKC6UxbSRcMYnlu2Th-32" value="Do Nothing" style="shape=parallelogram;perimeter=parallelogramPerimeter;whiteSpace=wrap;html=1;fixedSize=1;" vertex="1" parent="1">
          <mxGeometry x="45" y="770" width="120" height="60" as="geometry" />
        </mxCell>
        <mxCell id="CkPKC6UxbSRcMYnlu2Th-36" style="edgeStyle=orthogonalEdgeStyle;rounded=0;orthogonalLoop=1;jettySize=auto;html=1;" edge="1" parent="1" source="CkPKC6UxbSRcMYnlu2Th-34" target="CkPKC6UxbSRcMYnlu2Th-23">
          <mxGeometry relative="1" as="geometry" />
        </mxCell>
        <mxCell id="CkPKC6UxbSRcMYnlu2Th-37" value="Yes" style="edgeStyle=orthogonalEdgeStyle;rounded=0;orthogonalLoop=1;jettySize=auto;html=1;" edge="1" parent="1" source="CkPKC6UxbSRcMYnlu2Th-34" target="CkPKC6UxbSRcMYnlu2Th-38">
          <mxGeometry relative="1" as="geometry">
            <mxPoint x="-50" y="540" as="targetPoint" />
            <Array as="points" />
          </mxGeometry>
        </mxCell>
        <mxCell id="CkPKC6UxbSRcMYnlu2Th-34" value="Is Ready ?&amp;nbsp;" style="rhombus;whiteSpace=wrap;html=1;" vertex="1" parent="1">
          <mxGeometry x="65" y="500" width="80" height="80" as="geometry" />
        </mxCell>
        <mxCell id="CkPKC6UxbSRcMYnlu2Th-39" style="edgeStyle=orthogonalEdgeStyle;rounded=0;orthogonalLoop=1;jettySize=auto;html=1;entryX=0.014;entryY=0.368;entryDx=0;entryDy=0;entryPerimeter=0;" edge="1" parent="1" source="CkPKC6UxbSRcMYnlu2Th-38" target="CkPKC6UxbSRcMYnlu2Th-23">
          <mxGeometry relative="1" as="geometry">
            <mxPoint x="-136" y="390" as="targetPoint" />
            <Array as="points">
              <mxPoint x="-136" y="410" />
              <mxPoint x="61" y="410" />
            </Array>
          </mxGeometry>
        </mxCell>
        <mxCell id="CkPKC6UxbSRcMYnlu2Th-40" value="update&amp;nbsp; content to &lt;b&gt;&lt;font style=&quot;font-size: 18px;&quot;&gt;Doing&lt;/font&gt;&lt;/b&gt;" style="edgeLabel;html=1;align=center;verticalAlign=middle;resizable=0;points=[];" vertex="1" connectable="0" parent="CkPKC6UxbSRcMYnlu2Th-39">
          <mxGeometry x="0.0896" y="3" relative="1" as="geometry">
            <mxPoint as="offset" />
          </mxGeometry>
        </mxCell>
        <mxCell id="CkPKC6UxbSRcMYnlu2Th-41" value="Trigger refresh" style="edgeStyle=orthogonalEdgeStyle;rounded=0;orthogonalLoop=1;jettySize=auto;html=1;" edge="1" parent="1" source="CkPKC6UxbSRcMYnlu2Th-38" target="CkPKC6UxbSRcMYnlu2Th-42">
          <mxGeometry relative="1" as="geometry">
            <mxPoint x="-290" y="540" as="targetPoint" />
            <Array as="points">
              <mxPoint x="-300" y="540" />
              <mxPoint x="-300" y="540" />
            </Array>
          </mxGeometry>
        </mxCell>
        <mxCell id="CkPKC6UxbSRcMYnlu2Th-44" style="edgeStyle=orthogonalEdgeStyle;rounded=0;orthogonalLoop=1;jettySize=auto;html=1;entryX=1;entryY=0.5;entryDx=0;entryDy=0;" edge="1" parent="1" source="CkPKC6UxbSRcMYnlu2Th-38" target="CkPKC6UxbSRcMYnlu2Th-43">
          <mxGeometry relative="1" as="geometry">
            <Array as="points">
              <mxPoint x="-190" y="540" />
              <mxPoint x="-190" y="250" />
            </Array>
          </mxGeometry>
        </mxCell>
        <mxCell id="CkPKC6UxbSRcMYnlu2Th-38" value="JB_RebatesSynctoBuyer" style="aspect=fixed;html=1;points=[];align=center;image;fontSize=12;image=img/lib/azure2/internet_of_things/Logic_Apps.svg;" vertex="1" parent="1">
          <mxGeometry x="-170" y="506" width="68" height="68" as="geometry" />
        </mxCell>
        <mxCell id="CkPKC6UxbSRcMYnlu2Th-42" value="Buyer Model - rebates tables only" style="aspect=fixed;html=1;points=[];align=center;image;fontSize=12;image=img/lib/azure2/analytics/Analysis_Services.svg;" vertex="1" parent="1">
          <mxGeometry x="-420" y="520" width="78.75" height="60" as="geometry" />
        </mxCell>
        <mxCell id="CkPKC6UxbSRcMYnlu2Th-45" style="edgeStyle=orthogonalEdgeStyle;rounded=0;orthogonalLoop=1;jettySize=auto;html=1;" edge="1" parent="1" source="CkPKC6UxbSRcMYnlu2Th-43" target="CkPKC6UxbSRcMYnlu2Th-42">
          <mxGeometry relative="1" as="geometry" />
        </mxCell>
        <mxCell id="CkPKC6UxbSRcMYnlu2Th-46" value="Update content to &lt;b&gt;&lt;font style=&quot;font-size: 18px;&quot;&gt;Done&lt;/font&gt;&lt;/b&gt;" style="edgeStyle=orthogonalEdgeStyle;rounded=0;orthogonalLoop=1;jettySize=auto;html=1;" edge="1" parent="1" source="CkPKC6UxbSRcMYnlu2Th-43" target="CkPKC6UxbSRcMYnlu2Th-23">
          <mxGeometry x="0.3542" y="20" relative="1" as="geometry">
            <Array as="points">
              <mxPoint x="110" y="250" />
            </Array>
            <mxPoint as="offset" />
          </mxGeometry>
        </mxCell>
        <mxCell id="CkPKC6UxbSRcMYnlu2Th-95" value="YES" style="edgeLabel;html=1;align=center;verticalAlign=middle;resizable=0;points=[];" vertex="1" connectable="0" parent="CkPKC6UxbSRcMYnlu2Th-46">
          <mxGeometry x="-0.7135" y="4" relative="1" as="geometry">
            <mxPoint as="offset" />
          </mxGeometry>
        </mxCell>
        <mxCell id="CkPKC6UxbSRcMYnlu2Th-43" value="Is Refreshed" style="rhombus;whiteSpace=wrap;html=1;" vertex="1" parent="1">
          <mxGeometry x="-230" y="210" width="80" height="80" as="geometry" />
        </mxCell>
        <mxCell id="CkPKC6UxbSRcMYnlu2Th-49" style="edgeStyle=orthogonalEdgeStyle;rounded=0;orthogonalLoop=1;jettySize=auto;html=1;" edge="1" parent="1" source="CkPKC6UxbSRcMYnlu2Th-48" target="CkPKC6UxbSRcMYnlu2Th-38">
          <mxGeometry relative="1" as="geometry">
            <Array as="points">
              <mxPoint x="-136" y="820" />
              <mxPoint x="-136" y="820" />
            </Array>
          </mxGeometry>
        </mxCell>
        <mxCell id="CkPKC6UxbSRcMYnlu2Th-50" value="Yes" style="edgeStyle=orthogonalEdgeStyle;rounded=0;orthogonalLoop=1;jettySize=auto;html=1;" edge="1" parent="1" source="CkPKC6UxbSRcMYnlu2Th-48" target="CkPKC6UxbSRcMYnlu2Th-53">
          <mxGeometry relative="1" as="geometry">
            <mxPoint x="-130" y="1070" as="targetPoint" />
          </mxGeometry>
        </mxCell>
        <mxCell id="CkPKC6UxbSRcMYnlu2Th-48" value="Is completed" style="rhombus;whiteSpace=wrap;html=1;" vertex="1" parent="1">
          <mxGeometry x="-170" y="910" width="80" height="80" as="geometry" />
        </mxCell>
        <mxCell id="CkPKC6UxbSRcMYnlu2Th-56" style="edgeStyle=orthogonalEdgeStyle;rounded=0;orthogonalLoop=1;jettySize=auto;html=1;" edge="1" parent="1" source="CkPKC6UxbSRcMYnlu2Th-53" target="CkPKC6UxbSRcMYnlu2Th-55">
          <mxGeometry relative="1" as="geometry" />
        </mxCell>
        <mxCell id="CkPKC6UxbSRcMYnlu2Th-53" value="" style="swimlane;startSize=0;" vertex="1" parent="1">
          <mxGeometry x="-327" y="1060" width="392" height="180" as="geometry" />
        </mxCell>
        <mxCell id="CkPKC6UxbSRcMYnlu2Th-51" value="rebatesComplete.txt&amp;nbsp;" style="sketch=0;aspect=fixed;html=1;points=[];align=center;image;fontSize=12;image=img/lib/mscae/BlobBlock.svg;" vertex="1" parent="CkPKC6UxbSRcMYnlu2Th-53">
          <mxGeometry x="67" y="60" width="90.48" height="76" as="geometry" />
        </mxCell>
        <mxCell id="CkPKC6UxbSRcMYnlu2Th-54" value="BuyerComplete.txt" style="sketch=0;aspect=fixed;html=1;points=[];align=center;image;fontSize=12;image=img/lib/mscae/BlobBlock.svg;" vertex="1" parent="CkPKC6UxbSRcMYnlu2Th-53">
          <mxGeometry x="207" y="60" width="90.48" height="76" as="geometry" />
        </mxCell>
        <mxCell id="CkPKC6UxbSRcMYnlu2Th-58" style="edgeStyle=orthogonalEdgeStyle;rounded=0;orthogonalLoop=1;jettySize=auto;html=1;" edge="1" parent="1" source="CkPKC6UxbSRcMYnlu2Th-55" target="CkPKC6UxbSRcMYnlu2Th-57">
          <mxGeometry relative="1" as="geometry" />
        </mxCell>
        <mxCell id="CkPKC6UxbSRcMYnlu2Th-59" value="Yes" style="edgeLabel;html=1;align=center;verticalAlign=middle;resizable=0;points=[];" vertex="1" connectable="0" parent="CkPKC6UxbSRcMYnlu2Th-58">
          <mxGeometry x="-0.1976" y="3" relative="1" as="geometry">
            <mxPoint as="offset" />
          </mxGeometry>
        </mxCell>
        <mxCell id="CkPKC6UxbSRcMYnlu2Th-60" value="Yes" style="edgeStyle=orthogonalEdgeStyle;rounded=0;orthogonalLoop=1;jettySize=auto;html=1;" edge="1" parent="1" source="CkPKC6UxbSRcMYnlu2Th-55" target="CkPKC6UxbSRcMYnlu2Th-61">
          <mxGeometry relative="1" as="geometry">
            <mxPoint x="-130" y="1530" as="targetPoint" />
            <Array as="points">
              <mxPoint x="-130" y="1520" />
              <mxPoint x="-130" y="1520" />
            </Array>
          </mxGeometry>
        </mxCell>
        <mxCell id="CkPKC6UxbSRcMYnlu2Th-55" value="If all content = Done" style="rhombus;whiteSpace=wrap;html=1;" vertex="1" parent="1">
          <mxGeometry x="-203" y="1290" width="146" height="120" as="geometry" />
        </mxCell>
        <mxCell id="CkPKC6UxbSRcMYnlu2Th-57" value="JB_TriggerRebatesReportSend" style="aspect=fixed;html=1;points=[];align=center;image;fontSize=12;image=img/lib/azure2/internet_of_things/Logic_Apps.svg;" vertex="1" parent="1">
          <mxGeometry x="220" y="1316" width="68" height="68" as="geometry" />
        </mxCell>
        <mxCell id="CkPKC6UxbSRcMYnlu2Th-61" value="" style="swimlane;startSize=0;" vertex="1" parent="1">
          <mxGeometry x="-396" y="1500" width="506" height="150" as="geometry" />
        </mxCell>
        <mxCell id="CkPKC6UxbSRcMYnlu2Th-66" style="edgeStyle=orthogonalEdgeStyle;rounded=0;orthogonalLoop=1;jettySize=auto;html=1;" edge="1" parent="CkPKC6UxbSRcMYnlu2Th-61" source="CkPKC6UxbSRcMYnlu2Th-62" target="CkPKC6UxbSRcMYnlu2Th-65">
          <mxGeometry relative="1" as="geometry" />
        </mxCell>
        <mxCell id="CkPKC6UxbSRcMYnlu2Th-62" value="AllComplete.txt" style="sketch=0;aspect=fixed;html=1;points=[];align=center;image;fontSize=12;image=img/lib/mscae/BlobBlock.svg;" vertex="1" parent="CkPKC6UxbSRcMYnlu2Th-61">
          <mxGeometry x="140" y="44" width="90.48" height="76" as="geometry" />
        </mxCell>
        <mxCell id="CkPKC6UxbSRcMYnlu2Th-68" style="edgeStyle=orthogonalEdgeStyle;rounded=0;orthogonalLoop=1;jettySize=auto;html=1;entryX=0;entryY=0.5;entryDx=0;entryDy=0;" edge="1" parent="CkPKC6UxbSRcMYnlu2Th-61" source="CkPKC6UxbSRcMYnlu2Th-63" target="CkPKC6UxbSRcMYnlu2Th-67">
          <mxGeometry relative="1" as="geometry" />
        </mxCell>
        <mxCell id="CkPKC6UxbSRcMYnlu2Th-63" value="BuyerRefresh.txt" style="sketch=0;aspect=fixed;html=1;points=[];align=center;image;fontSize=12;image=img/lib/mscae/BlobBlock.svg;" vertex="1" parent="CkPKC6UxbSRcMYnlu2Th-61">
          <mxGeometry x="280" y="44" width="90.48" height="76" as="geometry" />
        </mxCell>
        <mxCell id="CkPKC6UxbSRcMYnlu2Th-65" value="true" style="rounded=1;whiteSpace=wrap;html=1;" vertex="1" parent="CkPKC6UxbSRcMYnlu2Th-61">
          <mxGeometry x="40" y="67" width="70" height="30" as="geometry" />
        </mxCell>
        <mxCell id="CkPKC6UxbSRcMYnlu2Th-67" value="not Done" style="rounded=1;whiteSpace=wrap;html=1;" vertex="1" parent="CkPKC6UxbSRcMYnlu2Th-61">
          <mxGeometry x="430" y="67" width="70" height="30" as="geometry" />
        </mxCell>
        <mxCell id="CkPKC6UxbSRcMYnlu2Th-79" value="Reset Flag" style="edgeStyle=orthogonalEdgeStyle;rounded=0;orthogonalLoop=1;jettySize=auto;html=1;" edge="1" parent="1" source="CkPKC6UxbSRcMYnlu2Th-70" target="CkPKC6UxbSRcMYnlu2Th-72">
          <mxGeometry relative="1" as="geometry" />
        </mxCell>
        <mxCell id="CkPKC6UxbSRcMYnlu2Th-70" value="JB_RebatesResetFlag&amp;nbsp;" style="aspect=fixed;html=1;points=[];align=center;image;fontSize=12;image=img/lib/azure2/internet_of_things/Logic_Apps.svg;" vertex="1" parent="1">
          <mxGeometry x="761" y="1010" width="88" height="88" as="geometry" />
        </mxCell>
        <mxCell id="CkPKC6UxbSRcMYnlu2Th-72" value="" style="swimlane;startSize=0;" vertex="1" parent="1">
          <mxGeometry x="595" y="1180" width="420" height="230" as="geometry" />
        </mxCell>
        <mxCell id="CkPKC6UxbSRcMYnlu2Th-73" style="edgeStyle=orthogonalEdgeStyle;rounded=0;orthogonalLoop=1;jettySize=auto;html=1;" edge="1" parent="CkPKC6UxbSRcMYnlu2Th-72" source="CkPKC6UxbSRcMYnlu2Th-74" target="CkPKC6UxbSRcMYnlu2Th-77">
          <mxGeometry relative="1" as="geometry" />
        </mxCell>
        <mxCell id="CkPKC6UxbSRcMYnlu2Th-74" value="RebatesComplete.txt" style="sketch=0;aspect=fixed;html=1;points=[];align=center;image;fontSize=12;image=img/lib/mscae/BlobBlock.svg;" vertex="1" parent="CkPKC6UxbSRcMYnlu2Th-72">
          <mxGeometry x="35" y="32" width="90.48" height="76" as="geometry" />
        </mxCell>
        <mxCell id="CkPKC6UxbSRcMYnlu2Th-83" style="edgeStyle=orthogonalEdgeStyle;rounded=0;orthogonalLoop=1;jettySize=auto;html=1;" edge="1" parent="CkPKC6UxbSRcMYnlu2Th-72" source="CkPKC6UxbSRcMYnlu2Th-76" target="CkPKC6UxbSRcMYnlu2Th-78">
          <mxGeometry relative="1" as="geometry" />
        </mxCell>
        <mxCell id="CkPKC6UxbSRcMYnlu2Th-76" value="BuyerComplete.txt" style="sketch=0;aspect=fixed;html=1;points=[];align=center;image;fontSize=12;image=img/lib/mscae/BlobBlock.svg;" vertex="1" parent="CkPKC6UxbSRcMYnlu2Th-72">
          <mxGeometry x="175" y="32" width="90.48" height="76" as="geometry" />
        </mxCell>
        <mxCell id="CkPKC6UxbSRcMYnlu2Th-77" value="null" style="rounded=1;whiteSpace=wrap;html=1;" vertex="1" parent="CkPKC6UxbSRcMYnlu2Th-72">
          <mxGeometry x="45.24000000000001" y="168" width="70" height="30" as="geometry" />
        </mxCell>
        <mxCell id="CkPKC6UxbSRcMYnlu2Th-78" value="not Done" style="rounded=1;whiteSpace=wrap;html=1;" vertex="1" parent="CkPKC6UxbSRcMYnlu2Th-72">
          <mxGeometry x="185.24" y="168" width="70" height="30" as="geometry" />
        </mxCell>
        <mxCell id="CkPKC6UxbSRcMYnlu2Th-84" style="edgeStyle=orthogonalEdgeStyle;rounded=0;orthogonalLoop=1;jettySize=auto;html=1;" edge="1" parent="CkPKC6UxbSRcMYnlu2Th-72" source="CkPKC6UxbSRcMYnlu2Th-81" target="CkPKC6UxbSRcMYnlu2Th-82">
          <mxGeometry relative="1" as="geometry" />
        </mxCell>
        <mxCell id="CkPKC6UxbSRcMYnlu2Th-81" value="AllComplete" style="sketch=0;aspect=fixed;html=1;points=[];align=center;image;fontSize=12;image=img/lib/mscae/BlobBlock.svg;" vertex="1" parent="CkPKC6UxbSRcMYnlu2Th-72">
          <mxGeometry x="305" y="32" width="90.48" height="76" as="geometry" />
        </mxCell>
        <mxCell id="CkPKC6UxbSRcMYnlu2Th-82" value="not true" style="rounded=1;whiteSpace=wrap;html=1;" vertex="1" parent="CkPKC6UxbSRcMYnlu2Th-72">
          <mxGeometry x="315.24" y="168" width="70" height="30" as="geometry" />
        </mxCell>
        <mxCell id="CkPKC6UxbSRcMYnlu2Th-86" value="Triggert" style="edgeStyle=orthogonalEdgeStyle;rounded=0;orthogonalLoop=1;jettySize=auto;html=1;" edge="1" parent="1" source="CkPKC6UxbSRcMYnlu2Th-85" target="CkPKC6UxbSRcMYnlu2Th-70">
          <mxGeometry relative="1" as="geometry" />
        </mxCell>
        <mxCell id="CkPKC6UxbSRcMYnlu2Th-85" value="&#xa;&lt;span style=&quot;color: rgb(0, 0, 0); font-family: Helvetica; font-size: 12px; font-style: normal; font-variant-ligatures: normal; font-variant-caps: normal; font-weight: 400; letter-spacing: normal; orphans: 2; text-align: center; text-indent: 0px; text-transform: none; widows: 2; word-spacing: 0px; -webkit-text-stroke-width: 0px; background-color: rgb(255, 255, 255); text-decoration-thickness: initial; text-decoration-style: initial; text-decoration-color: initial; float: none; display: inline !important;&quot;&gt;11:55 pm AEST&lt;/span&gt;&#xa;&#xa;" style="html=1;verticalLabelPosition=bottom;align=center;labelBackgroundColor=#ffffff;verticalAlign=top;strokeWidth=2;strokeColor=#0080F0;shadow=0;dashed=0;shape=mxgraph.ios7.icons.alarm_clock;" vertex="1" parent="1">
          <mxGeometry x="755" y="760" width="100" height="110" as="geometry" />
        </mxCell>
        <mxCell id="CkPKC6UxbSRcMYnlu2Th-88" value="JB HiFi&amp;nbsp;" style="swimlane;whiteSpace=wrap;html=1;fillColor=#FF9933;" vertex="1" parent="1">
          <mxGeometry x="-203" y="-40" width="1120" height="220" as="geometry" />
        </mxCell>
        <mxCell id="CkPKC6UxbSRcMYnlu2Th-1" value="Rebates staging" style="rounded=0;whiteSpace=wrap;html=1;" vertex="1" parent="CkPKC6UxbSRcMYnlu2Th-88">
          <mxGeometry x="245" y="50" width="120" height="60" as="geometry" />
        </mxCell>
        <mxCell id="CkPKC6UxbSRcMYnlu2Th-2" value="Rebates updates" style="rounded=0;whiteSpace=wrap;html=1;" vertex="1" parent="CkPKC6UxbSRcMYnlu2Th-88">
          <mxGeometry x="474" y="50" width="120" height="60" as="geometry" />
        </mxCell>
        <mxCell id="CkPKC6UxbSRcMYnlu2Th-3" style="edgeStyle=orthogonalEdgeStyle;rounded=0;orthogonalLoop=1;jettySize=auto;html=1;" edge="1" parent="CkPKC6UxbSRcMYnlu2Th-88" source="CkPKC6UxbSRcMYnlu2Th-1" target="CkPKC6UxbSRcMYnlu2Th-2">
          <mxGeometry relative="1" as="geometry" />
        </mxCell>
        <mxCell id="CkPKC6UxbSRcMYnlu2Th-4" value="Rebates recalc" style="rounded=0;whiteSpace=wrap;html=1;" vertex="1" parent="CkPKC6UxbSRcMYnlu2Th-88">
          <mxGeometry x="474" y="140" width="120" height="60" as="geometry" />
        </mxCell>
        <mxCell id="CkPKC6UxbSRcMYnlu2Th-5" style="edgeStyle=orthogonalEdgeStyle;rounded=0;orthogonalLoop=1;jettySize=auto;html=1;" edge="1" parent="CkPKC6UxbSRcMYnlu2Th-88" source="CkPKC6UxbSRcMYnlu2Th-2" target="CkPKC6UxbSRcMYnlu2Th-4">
          <mxGeometry relative="1" as="geometry" />
        </mxCell>
        <mxCell id="CkPKC6UxbSRcMYnlu2Th-6" value="Send HTTP requrest to Vnet" style="shape=parallelogram;perimeter=parallelogramPerimeter;whiteSpace=wrap;html=1;fixedSize=1;" vertex="1" parent="CkPKC6UxbSRcMYnlu2Th-88">
          <mxGeometry x="730" y="140" width="190" height="60" as="geometry" />
        </mxCell>
        <mxCell id="CkPKC6UxbSRcMYnlu2Th-7" style="edgeStyle=orthogonalEdgeStyle;rounded=0;orthogonalLoop=1;jettySize=auto;html=1;" edge="1" parent="CkPKC6UxbSRcMYnlu2Th-88" source="CkPKC6UxbSRcMYnlu2Th-4" target="CkPKC6UxbSRcMYnlu2Th-6">
          <mxGeometry relative="1" as="geometry" />
        </mxCell>
        <mxCell id="CkPKC6UxbSRcMYnlu2Th-90" value="Return completed" style="rounded=0;whiteSpace=wrap;html=1;fillColor=#FFFFFF;" vertex="1" parent="1">
          <mxGeometry x="600" y="690" width="120" height="60" as="geometry" />
        </mxCell>
        <mxCell id="CkPKC6UxbSRcMYnlu2Th-93" style="edgeStyle=orthogonalEdgeStyle;rounded=0;orthogonalLoop=1;jettySize=auto;html=1;" edge="1" parent="1" source="CkPKC6UxbSRcMYnlu2Th-92" target="CkPKC6UxbSRcMYnlu2Th-24">
          <mxGeometry relative="1" as="geometry" />
        </mxCell>
        <mxCell id="CkPKC6UxbSRcMYnlu2Th-94" value="" style="edgeStyle=orthogonalEdgeStyle;rounded=0;orthogonalLoop=1;jettySize=auto;html=1;" edge="1" parent="1" source="CkPKC6UxbSRcMYnlu2Th-92" target="CkPKC6UxbSRcMYnlu2Th-24">
          <mxGeometry relative="1" as="geometry" />
        </mxCell>
        <mxCell id="CkPKC6UxbSRcMYnlu2Th-92" value="6,9,12,15,18 AEST" style="html=1;verticalLabelPosition=bottom;align=center;labelBackgroundColor=#ffffff;verticalAlign=top;strokeWidth=2;strokeColor=#0080F0;shadow=0;dashed=0;shape=mxgraph.ios7.icons.alarm_clock;" vertex="1" parent="1">
          <mxGeometry x="282" y="470" width="66" height="70" as="geometry" />
        </mxCell>
      </root>
    </mxGraphModel>
  </diagram>
</mxfile>
